<svg width="116" height="116" viewBox="0 0 116 116" fill="none" xmlns="http://www.w3.org/2000/svg">
<path fill-rule="evenodd" clip-rule="evenodd" d="M58.486 0.0112305C90.2423 0.0112305 115.986 25.7545 115.986 57.5107C115.986 89.2673 90.2423 115.011 58.486 115.011C26.7298 115.011 0.985931 89.2673 0.985931 57.5107C0.985931 25.7545 26.7298 0.0112305 58.486 0.0112305Z" fill="#F9BF3B"/>
<path d="M64.2354 36.307C64.1387 36.307 64.0404 36.2875 63.9461 36.2464C63.5828 36.0879 63.4181 35.6678 63.5781 35.3081L66.6399 28.425C66.7375 28.2055 66.9401 28.0496 67.1789 28.0099C67.4172 27.97 67.6606 28.0523 67.8249 28.2283L70.9442 31.5637C71.2141 31.8522 71.1967 32.3024 70.9053 32.5697C70.6143 32.8367 70.1595 32.8196 69.8897 32.5311L67.5142 29.9908L64.8937 35.8819C64.7751 36.1484 64.5117 36.307 64.2354 36.307Z" fill="#415A6B"/>
<path d="M79.0031 49.7194H36.019C35.6221 49.7194 35.3003 49.4007 35.3003 49.0076V42.5587C35.3003 42.1657 35.6221 41.8469 36.019 41.8469H79.0031C79.4001 41.8469 79.7218 42.1657 79.7218 42.5587V49.0076C79.7218 49.4007 79.4 49.7194 79.0031 49.7194ZM36.7378 48.2958H78.2843V43.2705H36.7378V48.2958Z" fill="#415A6B"/>
<path d="M59.4648 87.9999H29.5057V58.3308H59.4646H85.5162V87.9999H59.4648Z" fill="#415A6B"/>
<path d="M31.4593 61.0727H61.4182H85.5164V58.3308H59.4648H29.5057V87.9999H31.4593V61.0727Z" fill="#344C59"/>
<path d="M79.3697 29.2296C80.6994 30.545 80.1991 32.5394 80.2723 35.0991C77.6878 35.0265 75.6753 35.5205 74.3469 34.2036C73.6123 33.4776 73.5793 32.3316 74.2736 31.644C74.9002 31.0233 75.5471 31.0404 76.5247 31.3878C76.174 30.4197 76.1566 29.7791 76.7835 29.1584C77.4794 28.4694 78.6365 28.5021 79.3697 29.2296Z" fill="#EF3E5C"/>
<path d="M79.3697 29.2296C78.6364 28.5021 77.4793 28.4694 76.7836 29.1584C76.454 29.4847 76.3039 29.8171 76.2852 30.1992C76.9706 29.8363 77.8653 29.9616 78.4712 30.5628C79.5591 31.639 79.422 33.1702 79.3764 35.0934C79.6669 35.0901 79.9655 35.0905 80.2723 35.0992C80.1991 32.5394 80.6993 30.545 79.3697 29.2296Z" fill="#DD2C52"/>
<path d="M64.2617 33.2859C65.2803 34.2921 65.2817 35.9255 64.2656 36.9343C63.2497 37.9431 61.601 37.9456 60.5824 36.9394C59.5638 35.9332 59.5605 34.2996 60.5765 33.2907C61.5924 32.282 63.2429 32.2797 64.2617 33.2859Z" fill="#415A6B"/>
<path d="M62.1806 37.4664C61.162 36.4602 61.1587 34.8266 62.1747 33.8177C62.6777 33.3183 63.3362 33.0665 63.9968 33.0605C62.9744 32.2895 61.5087 32.3651 60.5765 33.2908C59.5605 34.2996 59.5638 35.9333 60.5824 36.9395C61.0969 37.4477 61.7721 37.6977 62.4454 37.6916C62.3537 37.6224 62.2644 37.5491 62.1806 37.4664Z" fill="#344C59"/>
<path d="M55.076 31.6428C55.7717 32.3318 55.7385 33.4778 55.0041 34.2038C53.6758 35.5207 51.6619 35.0252 49.0773 35.0978C49.1507 32.5382 48.6518 30.5452 49.9815 29.2298C50.7147 28.5023 51.8718 28.4696 52.5661 29.1572C53.1927 29.7779 53.1756 30.4185 52.8248 31.3865C53.8023 31.0392 54.4492 31.0221 55.076 31.6428Z" fill="#EF3E5C"/>
<path d="M50.9877 30.5862C51.5617 30.0166 52.395 29.875 53.0632 30.1695C53.0386 29.7992 52.8874 29.4755 52.5661 29.1572C51.8718 28.4696 50.7146 28.5023 49.9815 29.2298C48.6518 30.5452 49.1507 32.5382 49.0773 35.0978C49.4221 35.0882 49.7565 35.0887 50.0807 35.0936C50.0349 33.181 49.9038 31.6584 50.9877 30.5862Z" fill="#DD2C52"/>
<path d="M37.5948 29.5075C39.4607 31.3553 38.7593 34.1555 38.8627 37.7487C35.233 37.6462 32.4083 38.3394 30.5424 36.4916C29.5132 35.4723 29.4672 33.8622 30.4388 32.8985C31.3215 32.0258 32.2285 32.0514 33.6013 32.5383C33.1096 31.1788 33.0838 30.2805 33.965 29.4078C34.9397 28.4412 36.5655 28.4882 37.5948 29.5075Z" fill="#EF3E5C"/>
<path d="M37.5945 29.5075C36.5653 28.4882 34.9395 28.4412 33.9649 29.4078C33.3713 29.9956 33.1905 30.5957 33.2852 31.3398C33.3082 31.3156 33.3295 31.2912 33.3539 31.2669C34.3285 30.3003 35.9544 30.3473 36.9836 31.3665C38.5122 32.8804 38.3177 35.0339 38.2545 37.7386C38.4547 37.7398 38.6571 37.7428 38.8624 37.7487C38.7591 34.1555 39.4604 31.3553 37.5945 29.5075Z" fill="#DD2C52"/>
<path d="M85.5164 48.0112V58.3309H59.4648H29.5057V48.0112H36.019H79.0031H85.5164Z" fill="#F78F4B"/>
<path d="M31.4593 50.0135H37.9726H80.9565H85.5164V48.0112H79.0031H36.019H29.5057V58.3309H31.4593V50.0135Z" fill="#E2783D"/>
<path d="M71.1874 81.5512C76.2232 81.5512 80.3055 77.5084 80.3055 72.5213C80.3055 67.5343 76.2232 63.4915 71.1874 63.4915C66.1517 63.4915 62.0694 67.5343 62.0694 72.5213C62.0694 77.5084 66.1517 81.5512 71.1874 81.5512Z" fill="#EF3E5C"/>
<path d="M62.9326 74.372C62.9326 69.3853 67.0151 65.3421 72.0508 65.3421C75.351 65.3421 78.2416 67.0789 79.8422 69.6798C78.6393 66.0857 75.2202 63.4915 71.1876 63.4915C66.152 63.4915 62.0694 67.5345 62.0694 72.5213C62.0694 74.2399 62.5544 75.8461 63.396 77.2136C63.0967 76.3199 62.9326 75.3651 62.9326 74.372Z" fill="#DD2C52"/>
<path d="M55.5575 77.6804H52.9528V80.2614H55.5575V77.6804Z" fill="white"/>
<path d="M55.5575 73.811H52.9528V76.3906H55.5575V73.811Z" fill="white"/>
<path d="M55.5575 69.9417H52.9528V72.5212H55.5575V69.9417Z" fill="white"/>
<path d="M55.5575 66.071H52.9528V68.6506H55.5575V66.071Z" fill="white"/>
<path d="M51.6489 77.6804H46.4395V80.2614H51.6489V77.6804Z" fill="white"/>
<path d="M51.6489 73.811H49.0442V76.3906H51.6489V73.811Z" fill="white"/>
<path d="M51.6489 69.9417H46.4395V72.5212H51.6489V69.9417Z" fill="white"/>
<path d="M51.6489 66.071H49.0442V68.6506H51.6489V66.071Z" fill="white"/>
<path d="M47.7418 73.811H45.1371V76.3906H47.7418V73.811Z" fill="white"/>
<path d="M47.7418 66.071H45.1371V68.6506H47.7418V66.071Z" fill="white"/>
<path d="M45.1371 77.6804H42.5325V80.2614H45.1371V77.6804Z" fill="white"/>
<path d="M45.1371 69.9417H42.5325V72.5212H45.1371V69.9417Z" fill="white"/>
<path d="M43.8347 73.811H38.6238V76.3906H43.8347V73.811Z" fill="white"/>
<path d="M43.8347 66.071H38.6238V68.6506H43.8347V66.071Z" fill="white"/>
<path d="M41.2285 77.6804H38.6238V80.2614H41.2285V77.6804Z" fill="white"/>
<path d="M41.2285 69.9417H38.6238V72.5212H41.2285V69.9417Z" fill="white"/>
<path d="M37.3214 77.6804H34.7167V80.2614H37.3214V77.6804Z" fill="white"/>
<path d="M37.3214 73.811H34.7167V76.3906H37.3214V73.811Z" fill="white"/>
<path d="M37.3214 69.9417H34.7167V72.5212H37.3214V69.9417Z" fill="white"/>
<path d="M37.3214 66.071H34.7167V68.6506H37.3214V66.071Z" fill="white"/>
<path d="M80.3054 53.8836H34.7166C34.3196 53.8836 33.9979 53.5648 33.9979 53.1718C33.9979 52.7787 34.3196 52.46 34.7166 52.46H80.3054C80.7025 52.46 81.0242 52.7787 81.0242 53.1718C81.0242 53.5648 80.7025 53.8836 80.3054 53.8836Z" fill="#E2783D"/>
<path d="M73.7936 55.1736C73.3965 55.1736 73.0748 54.8548 73.0748 54.4618V51.8822C73.0748 51.4892 73.3965 51.1704 73.7936 51.1704C74.1906 51.1704 74.5123 51.4892 74.5123 51.8822V54.4618C74.5123 54.8548 74.1906 55.1736 73.7936 55.1736Z" fill="#E2783D"/>
<path d="M79.0031 70.6536H67.2803C66.8833 70.6536 66.5616 70.335 66.5616 69.9418C66.5616 69.5486 66.8833 69.23 67.2803 69.23H79.0031C79.4002 69.23 79.7219 69.5486 79.7219 69.9418C79.7219 70.335 79.4 70.6536 79.0031 70.6536Z" fill="white"/>
<path d="M79.8656 74.6084H64.2357C63.8387 74.6084 63.517 74.2898 63.517 73.8966C63.517 73.5034 63.8387 73.1848 64.2357 73.1848H79.8655C80.2625 73.1848 80.5842 73.5034 80.5842 73.8966C80.5842 74.2898 80.2625 74.6084 79.8656 74.6084Z" fill="white"/>
<path d="M73.7936 81.5512C73.3965 81.5512 73.0748 81.2106 73.0748 80.7907V64.2519C73.0748 63.832 73.3965 63.4915 73.7936 63.4915C74.1906 63.4915 74.5123 63.832 74.5123 64.2519V80.7907C74.5123 81.2106 74.1906 81.5512 73.7936 81.5512Z" fill="white"/>
<path d="M59.4648 67.0592C59.0677 67.0592 58.746 66.7406 58.746 66.3474V59.8971C58.746 59.5039 59.0677 59.1853 59.4648 59.1853C59.8616 59.1853 60.1834 59.5039 60.1834 59.8971V66.3474C60.1834 66.7406 59.8615 67.0592 59.4648 67.0592Z" fill="#344C59"/>
<path d="M71.1874 82.263C65.7635 82.263 61.3505 77.8928 61.3505 72.5212C61.3505 67.1495 65.7633 62.7795 71.1874 62.7795C76.6115 62.7795 81.0242 67.1495 81.0242 72.5212C81.0242 77.8928 76.6115 82.263 71.1874 82.263ZM71.1874 64.2031C66.556 64.2031 62.788 67.9347 62.788 72.5212C62.788 77.1079 66.556 80.8394 71.1874 80.8394C75.8188 80.8394 79.5867 77.1079 79.5867 72.5212C79.5867 67.9347 75.8188 64.2031 71.1874 64.2031Z" fill="white"/>
</svg>
